<svg width="64" height="64" viewBox="0 0 64 64" fill="none" xmlns="http://www.w3.org/2000/svg">
  <!-- Background circle -->
  <circle cx="32" cy="32" r="32" fill="url(#gradient)" />
  
  <!-- Football/Soccer ball -->
  <circle cx="32" cy="32" r="20" fill="white" stroke="#10b981" stroke-width="2"/>
  
  <!-- Pentagon pattern on ball -->
  <polygon points="32,16 38,22 35,30 29,30 26,22" fill="#10b981"/>
  <polygon points="26,22 20,26 22,34 29,30" fill="#10b981"/>
  <polygon points="38,22 44,26 42,34 35,30" fill="#10b981"/>
  <polygon points="22,34 26,42 32,40 29,30" fill="#10b981"/>
  <polygon points="42,34 38,42 32,40 35,30" fill="#10b981"/>
  <polygon points="32,40 26,42 30,48 38,48 42,34" fill="#10b981"/>
  
  <!-- Text CB -->
  <text x="32" y="58" text-anchor="middle" fill="white" font-family="Arial, sans-serif" font-weight="bold" font-size="8">CB</text>
  
  <defs>
    <linearGradient id="gradient" x1="0%" y1="0%" x2="100%" y2="100%">
      <stop offset="0%" style="stop-color:#10b981;stop-opacity:1" />
      <stop offset="100%" style="stop-color:#059669;stop-opacity:1" />
    </linearGradient>
  </defs>
</svg>